<svg xmlns="http://www.w3.org/2000/svg" viewBox="0 0 491.86 109.62"><g id="Layer_2" data-name="Layer 2"><g id="Camada_1" data-name="Camada 1"><path d="M71.16,15.31c9.8,0,14.29,3.58,14.29,11.23a27.18,27.18,0,0,1-.4,4.7L82.49,45.33C80.55,56.36,77.59,62,62.89,62H60.24L77.8,84.64a1.29,1.29,0,0,1-1,2.14H62.48a3.72,3.72,0,0,1-3.57-1.63L42.78,62.69H23.38l-3.78,22A2.49,2.49,0,0,1,17,86.78H5c-1.53,0-2.14-.82-1.94-2.14L14.91,17.46a2.49,2.49,0,0,1,2.65-2.15ZM29.51,28.69,25.83,49.31H57c7.15,0,8.58-1.22,9.6-7.14l1.12-6.34A20.83,20.83,0,0,0,68,32.67c0-3.27-1.74-4-7.35-4Z" transform="translate(-3.02 -11.23)" style="fill:#fff"/><path d="M145.49,72.18c-1.84,10.11-4,14.6-17.77,14.6H101.18c-9,0-13.07-3.16-13.07-10.21a23.06,23.06,0,0,1,.41-4.39l4.29-24.5c1.73-10.11,4.08-14.6,17.76-14.6h26.55c9,0,13.06,3.16,13.06,10.21a23.13,23.13,0,0,1-.41,4.39Zm-29.82-27c-6.33,0-7.65,1-8.67,6.33L104.14,68.3a16.58,16.58,0,0,0-.31,2.86c0,2.86,1.53,3.47,6.64,3.47h12.15c6.33,0,7.65-1,8.47-6.33l3-16.74a16.58,16.58,0,0,0,.31-2.86c0-2.86-1.63-3.47-6.54-3.47Z" transform="translate(-3.02 -11.23)" style="fill:#fff"/><path d="M161,47.68c1.73-10.11,4.08-14.6,17.76-14.6h26.44c8.38,0,12.26,2.86,12.26,9.49a21.91,21.91,0,0,1-.41,4.19l-.72,3.88A2.18,2.18,0,0,1,214,52.58H203.58c-1.43,0-1.94-.72-1.74-1.94l.31-1.94a3.21,3.21,0,0,0,.1-.92c0-1.74-1.22-2.55-3.57-2.55h-14.8c-6.33,0-7.66,1-8.68,6.33L172.34,68.3a16.58,16.58,0,0,0-.31,2.86c0,2.86,1.53,3.47,6.64,3.47h14.8c2.76,0,4.29-1,4.8-3.47l.31-1.94a2.12,2.12,0,0,1,2.35-1.94h10.41c1.33,0,1.94.72,1.74,1.94l-.62,3.88c-1.73,9.6-3.57,13.68-16.64,13.68H169.38c-9,0-13.07-3.16-13.07-10.21a23.06,23.06,0,0,1,.41-4.39Z" transform="translate(-3.02 -11.23)" style="fill:#fff"/><path d="M249,65.54h-8.68L237,84.84a2.12,2.12,0,0,1-2.35,1.94H223.79c-1.42,0-2-.71-1.83-1.94l12.66-71.67a2.2,2.2,0,0,1,2.45-1.94h10.82c1.43,0,1.94.71,1.74,1.94l-7.25,40.94h7l20.52-19.6a4.22,4.22,0,0,1,3.27-1.43h14c1,0,1.32,1.12.41,1.94l-26.24,24.6,18,25.22a1.2,1.2,0,0,1-1,1.94H265.86a3,3,0,0,1-3-1.43Z" transform="translate(-3.02 -11.23)" style="fill:#fff"/><path d="M306.7,73.41h46.55c1.54,0,2.15.81,1.94,2.14l-1.63,9.09A2.39,2.39,0,0,1,351,86.78H290.16c-1.53,0-2.15-.82-1.94-2.14l11.84-67.18a2.5,2.5,0,0,1,2.66-2.15h11.94c1.43,0,2.25.82,1.94,2.15Z" transform="translate(-3.02 -11.23)" style="fill:#ff3d9a"/><path d="M420,72.18c-1.83,10.11-4,14.6-17.76,14.6H375.71c-9,0-13.06-3.16-13.06-10.21a23.83,23.83,0,0,1,.4-4.39l4.29-24.5c1.74-10.11,4.09-14.6,17.77-14.6h26.54c9,0,13.07,3.16,13.07,10.21a23.13,23.13,0,0,1-.41,4.39Zm-29.81-27c-6.33,0-7.66,1-8.68,6.33L378.67,68.3a17.46,17.46,0,0,0-.3,2.86c0,2.86,1.53,3.47,6.63,3.47h12.15c6.33,0,7.66-1,8.48-6.33l3-16.74a17.64,17.64,0,0,0,.31-2.86c0-2.86-1.64-3.47-6.54-3.47Z" transform="translate(-3.02 -11.23)" style="fill:#ff3d9a"/><path d="M433.09,35c-.2-1.23.41-1.94,1.43-1.94h11.64c1.63,0,2.35.51,2.55,1.84l7.76,40,21.95-40a2.87,2.87,0,0,1,3.07-1.84h12.25c1,0,1.53.71.81,1.94L465.46,84.94a3.08,3.08,0,0,1-3.17,1.84H447.18c-1.63,0-2.24-.51-2.65-1.84Z" transform="translate(-3.02 -11.23)" style="fill:#ff3d9a"/><path d="M62.3,106a4.63,4.63,0,0,1-.93-2.31,8.06,8.06,0,0,1,.29-4.43c.06-.16.19-.32.05-.5a12.9,12.9,0,0,1,11.4-7,13.3,13.3,0,0,1,12.82,18,5.13,5.13,0,0,1-.77,1.51,10,10,0,0,0,.49-4.12,8.3,8.3,0,0,0-.81-2.75c-.07-.14-.09-.31-.29-.35a11.78,11.78,0,0,0-2-2.29,8.37,8.37,0,0,0-9.15-1.11,1.44,1.44,0,0,1-1,.06,8.24,8.24,0,0,0-6.18.86A8,8,0,0,0,63,105C62.82,105.34,62.77,105.82,62.3,106Z" transform="translate(-3.02 -11.23)" style="fill:#ff3d9a"/><path d="M102.39,109.93,91.91,111l-1.32,4.24-4.91.5,7.06-23.87,4.94-.5-4.55,15.38,7.17-.74-4-7.52,3.37-3.55,9.78,18.38-4.91.5Z" transform="translate(-3.02 -11.23)" style="fill:#ff3d9a"/><path d="M85.1,114.46l.66,6.39-5.38-4.38a16,16,0,0,1-1.6.81,13.34,13.34,0,0,1-18.66-11.8,12.84,12.84,0,0,1,1.59-6.72c.32.2.14.45.06.67a8.21,8.21,0,0,0,.6,6.51A8.09,8.09,0,0,0,69,110.28a7.84,7.84,0,0,0,4.26-.74,1.9,1.9,0,0,1,1.37-.14,8.3,8.3,0,0,0,9.53-4.7c.11-.25.15-.54.45-.67s.43.32.53.55a7.92,7.92,0,0,1,.06,6.71,11.81,11.81,0,0,1-1.32,2.14Z" transform="translate(-3.02 -11.23)" style="fill:#fff"/><path d="M79.33,104.7a1.66,1.66,0,1,1-1.83-1.45A1.65,1.65,0,0,1,79.33,104.7Z" transform="translate(-3.02 -11.23)" style="fill:#fff"/><path d="M70.09,105.64a1.67,1.67,0,0,1-1.46,1.84A1.64,1.64,0,0,1,66.81,106a1.62,1.62,0,0,1,1.44-1.83A1.66,1.66,0,0,1,70.09,105.64Z" transform="translate(-3.02 -11.23)" style="fill:#fff"/><path d="M113.53,105.55l.14,6.42a.61.61,0,0,1-.1.42.68.68,0,0,1-.42.12H113a.6.6,0,0,1-.41-.1.54.54,0,0,1-.12-.41l-.14-6.42c-.05-2.64,1.38-4,4.31-4a4.62,4.62,0,0,1,3.39,1,4,4,0,0,1,1.08,2.9l.14,6.42a.63.63,0,0,1-.1.42.68.68,0,0,1-.42.12h-.11a.6.6,0,0,1-.41-.1.54.54,0,0,1-.12-.41l-.14-6.42a3,3,0,0,0-.74-2.14,4.91,4.91,0,0,0-5.07.11A3,3,0,0,0,113.53,105.55Z" transform="translate(-3.02 -11.23)" style="fill:#fff"/><path d="M126,98.13a.75.75,0,0,1,.23-.59.85.85,0,0,1,.58-.24.77.77,0,0,1,.57.22.78.78,0,0,1,.23.57.79.79,0,0,1-.77.83.8.8,0,0,1-.59-.23A.78.78,0,0,1,126,98.13Zm.52,13.57-.2-9.65a.6.6,0,0,1,.1-.41.54.54,0,0,1,.41-.12h.11a.56.56,0,0,1,.42.11.6.6,0,0,1,.12.41l.2,9.65a.55.55,0,0,1-.1.41.54.54,0,0,1-.41.12h-.11a.59.59,0,0,1-.42-.1A.62.62,0,0,1,126.52,111.7Z" transform="translate(-3.02 -11.23)" style="fill:#fff"/><path d="M133.94,105.12l.14,6.42a.63.63,0,0,1-.1.42.65.65,0,0,1-.42.12h-.1a.61.61,0,0,1-.42-.1.55.55,0,0,1-.12-.42l-.13-6.41c-.06-2.64,1.37-4,4.3-4.05a4.62,4.62,0,0,1,3.39,1,3.92,3.92,0,0,1,1.08,2.9l.14,6.42a.43.43,0,0,1-.52.54h-.11a.6.6,0,0,1-.41-.1.55.55,0,0,1-.12-.42L140.4,105a2.94,2.94,0,0,0-.74-2.14,3.54,3.54,0,0,0-2.55-.65,3.48,3.48,0,0,0-2.51.76A2.92,2.92,0,0,0,133.94,105.12Z" transform="translate(-3.02 -11.23)" style="fill:#fff"/><path d="M147.71,101.6l.18,8.34a11,11,0,0,1-.34,3.21,5.36,5.36,0,0,1-.82,1.87,6.46,6.46,0,0,1-1.13,1.06c-.15.11-.26.15-.34.13s-.17-.12-.28-.29l-.07-.11a.8.8,0,0,1-.15-.36.54.54,0,0,1,.23-.3,6.75,6.75,0,0,0,.89-.94,4.62,4.62,0,0,0,.61-1.53,10.13,10.13,0,0,0,.24-2.67l-.17-8.39a.55.55,0,0,1,.1-.41.54.54,0,0,1,.41-.12h.11a.42.42,0,0,1,.53.51Zm-1.47-3.9a.75.75,0,0,1,.22-.58.79.79,0,0,1,.59-.24.76.76,0,0,1,.58.21.75.75,0,0,1,.24.57.76.76,0,0,1-.22.58.82.82,0,0,1-1.16,0A.73.73,0,0,1,146.24,97.7Z" transform="translate(-3.02 -11.23)" style="fill:#fff"/><path d="M160.72,103.88l.09,4.39a3.05,3.05,0,0,1-1,2.66,5.84,5.84,0,0,1-3.4.86,4.65,4.65,0,0,1-2.75-.71,2.74,2.74,0,0,1-1.16-2.4,2.69,2.69,0,0,1,1-2.41,6.17,6.17,0,0,1,3.35-.8l2.73-.06,0-1.5a1.89,1.89,0,0,0-.82-1.71,4.27,4.27,0,0,0-2.31-.46,9.67,9.67,0,0,0-2.61.36c-.19.07-.32.07-.38,0s-.1-.19-.11-.39v-.15a.55.55,0,0,1,.09-.4.79.79,0,0,1,.37-.18,11.82,11.82,0,0,1,2.56-.29Q160.64,100.61,160.72,103.88Zm-1.07,4.37,0-1.88-2.69.06a5.1,5.1,0,0,0-2.53.53,1.82,1.82,0,0,0-.76,1.7c0,1.43.94,2.12,2.73,2.08a4.94,4.94,0,0,0,2.53-.55A2.09,2.09,0,0,0,159.65,108.25Z" transform="translate(-3.02 -11.23)" style="fill:#fff"/><path d="M34.45,105.74V95.79a.55.55,0,0,1,.1-.39.57.57,0,0,1,.4-.1h.1a.4.4,0,0,1,.5.49v5.33c.52-1.11,1.65-1.66,3.4-1.66a4.23,4.23,0,0,1,3.27,1.1,4.58,4.58,0,0,1,1,3.17v2a4.45,4.45,0,0,1-1,3.16A4.45,4.45,0,0,1,38.82,110Q34.46,110,34.45,105.74Zm7.65,0v-2a3.57,3.57,0,0,0-.71-2.44,3.43,3.43,0,0,0-2.57-.77,3.43,3.43,0,0,0-2.57.77,3.57,3.57,0,0,0-.7,2.44v2a3.56,3.56,0,0,0,.7,2.44,3.43,3.43,0,0,0,2.57.77,3.43,3.43,0,0,0,2.57-.77A3.56,3.56,0,0,0,42.1,105.74Z" transform="translate(-3.02 -11.23)" style="fill:#fff"/><path d="M45.66,100.14l2.2,7.51a2,2,0,0,0,.5,1,1.53,1.53,0,0,0,1.69,0,2,2,0,0,0,.48-1l1.89-7.51a.71.71,0,0,1,.21-.39.66.66,0,0,1,.43-.1h.08c.21,0,.34,0,.4.1a.5.5,0,0,1,0,.39L51,109.8a8,8,0,0,1-1.47,3.12A3.22,3.22,0,0,1,47,114.07a.52.52,0,0,1-.32-.07.56.56,0,0,1-.16-.34l0-.17c0-.18,0-.29,0-.34s.13-.07.28-.07a2.5,2.5,0,0,0,2-.85A8.44,8.44,0,0,0,50,109.55a2,2,0,0,1-1.12.3,1.66,1.66,0,0,1-1.36-.53,4.87,4.87,0,0,1-.77-1.69l-2.2-7.49c0-.19-.06-.32,0-.39s.18-.1.39-.1H45a.66.66,0,0,1,.43.1A.87.87,0,0,1,45.66,100.14Z" transform="translate(-3.02 -11.23)" style="fill:#fff"/></g></g></svg>